HIERARCHY
ROOT joint_0
{
	OFFSET 0.000000 0.000000 0.000000
	CHANNELS 6 Xposition Yposition Zposition Zrotation Yrotation Xrotation 
	JOINT joint_1
	{
		OFFSET 6.579712 -2.778931 100.531982
		CHANNELS 3 Zrotation Yrotation Xrotation
		JOINT joint_2
		{
			OFFSET -3.313232 -1.302856 91.974976
			CHANNELS 3 Zrotation Yrotation Xrotation
			JOINT joint_3
			{
				OFFSET -3.421509 -1.641846 91.864014
				CHANNELS 3 Zrotation Yrotation Xrotation
				JOINT joint_4
				{
					OFFSET 7.697388 -4.642578 123.278931
					CHANNELS 3 Zrotation Yrotation Xrotation
					JOINT joint_5
					{
						OFFSET 24.842529 -5.941528 79.695068
						CHANNELS 3 Zrotation Yrotation Xrotation
						End Site
						{
							OFFSET 0.000000 0.000000 0.000000
						}
					}
				}
				JOINT joint_6
				{
					OFFSET -0.159668 -29.112976 68.364014
					CHANNELS 3 Zrotation Yrotation Xrotation
					JOINT joint_7
					{
						OFFSET -18.356079 -115.987061 -20.069092
						CHANNELS 3 Zrotation Yrotation Xrotation
						JOINT joint_8
						{
							OFFSET 31.719482 -11.733276 -267.170898
							CHANNELS 3 Zrotation Yrotation Xrotation
							JOINT joint_9
							{
								OFFSET 29.329956 -5.879517 -234.654053
								CHANNELS 3 Zrotation Yrotation Xrotation
								End Site
								{
									OFFSET 0.000000 0.000000 0.000000
								}
							}
						}
					}
				}
				JOINT joint_10
				{
					OFFSET 8.802979 23.897949 69.798950
					CHANNELS 3 Zrotation Yrotation Xrotation
					JOINT joint_11
					{
						OFFSET 21.159058 115.524292 -19.981934
						CHANNELS 3 Zrotation Yrotation Xrotation
						JOINT joint_12
						{
							OFFSET 18.809204 5.403442 -268.593018
							CHANNELS 3 Zrotation Yrotation Xrotation
							JOINT joint_13
							{
								OFFSET 20.807861 0.421265 -235.639038
								CHANNELS 3 Zrotation Yrotation Xrotation
								End Site
								{
									OFFSET 0.000000 0.000000 0.000000
								}
							}
						}
					}
				}
			}
		}
	}
	JOINT joint_14
	{
		OFFSET -9.713379 -79.513916 -99.348022
		CHANNELS 3 Zrotation Yrotation Xrotation
		JOINT joint_15
		{
			OFFSET -40.607788 -6.518372 -502.938019
			CHANNELS 3 Zrotation Yrotation Xrotation
			JOINT joint_16
			{
				OFFSET -19.807617 -7.437378 -399.590012
				CHANNELS 3 Zrotation Yrotation Xrotation
				JOINT joint_17
				{
					OFFSET 171.701660 -44.751282 -77.782000
					CHANNELS 3 Zrotation Yrotation Xrotation
					End Site
					{
						OFFSET 0.000000 0.000000 0.000000
					}
				}
			}
		}
	}
	JOINT joint_18
	{
		OFFSET 17.854858 79.618652 -98.128052
		CHANNELS 3 Zrotation Yrotation Xrotation
		JOINT joint_19
		{
			OFFSET -24.848877 16.861816 -503.722992
			CHANNELS 3 Zrotation Yrotation Xrotation
			JOINT joint_20
			{
				OFFSET -30.162476 14.470093 -398.750008
				CHANNELS 3 Zrotation Yrotation Xrotation
				JOINT joint_21
				{
					OFFSET 176.096680 -10.987549 -80.021000
					CHANNELS 3 Zrotation Yrotation Xrotation
					End Site
					{
						OFFSET 0.000000 0.000000 0.000000
					}
				}
			}
		}
	}
}
MOTION
Frames: 15
Frame Time: 0.016667
-1132.965576 843.679382 1099.010010 30.278305 -0.065810 -0.734184 0.040151 -2.181005 -0.204195 0.151636 0.323577 0.029652 0.137043 -0.456672 -0.055068 0.145875 1.251717 -0.237895 0.000000 0.000000 0.000000 -0.196165 2.607950 0.937800 0.126874 2.627679 0.609745 -0.098972 -1.271478 -1.641749 0.000000 0.000000 0.000000 0.472962 0.681590 1.158844 -0.257457 1.196625 -2.311629 0.063482 -1.329576 2.509347 0.000000 0.000000 0.000000 2.666628 -0.322857 1.151973 2.730059 0.546435 0.255386 2.793027 -2.359353 0.651075 0.000000 0.000000 0.000000 -1.685537 -0.135136 0.796910 -1.595075 1.068993 -0.050924 -1.615539 -0.621382 -0.774407 0.000000 0.000000 0.000000 
-1133.204346 843.723450 1099.005981 30.252117 -0.068199 -0.749008 0.041075 -2.150662 -0.195222 0.150436 0.320224 0.028533 0.136058 -0.450878 -0.053858 0.146655 1.245655 -0.241978 0.000000 0.000000 0.000000 -0.191271 2.617556 0.958076 0.132042 2.632147 0.662806 -0.096422 -1.287353 -1.631314 0.000000 0.000000 0.000000 0.485751 0.702432 1.161518 -0.280088 1.229180 -2.403109 0.065592 -1.443281 2.780958 0.000000 0.000000 0.000000 2.675411 -0.343853 1.153268 2.738615 0.567963 0.263027 2.803114 -2.362339 0.654882 0.000000 0.000000 0.000000 -1.678209 -0.145970 0.802561 -1.586871 1.082439 -0.047683 -1.608198 -0.633484 -0.771825 0.000000 0.000000 0.000000 
-1133.438721 843.778015 1099.000000 30.225252 -0.068845 -0.762583 0.041528 -2.120773 -0.188814 0.148808 0.315724 0.026825 0.134695 -0.444671 -0.052046 0.146685 1.238729 -0.243681 0.000000 0.000000 0.000000 -0.186636 2.627623 0.978331 0.137188 2.637101 0.715388 -0.093717 -1.306913 -1.621679 0.000000 0.000000 0.000000 0.501659 0.725074 1.166226 -0.306474 1.265328 -2.508312 0.066191 -1.563574 3.069158 0.000000 0.000000 0.000000 2.684360 -0.365832 1.153012 2.747278 0.588770 0.270249 2.813270 -2.366423 0.658439 0.000000 0.000000 0.000000 -1.670812 -0.158249 0.805995 -1.578752 1.096085 -0.043353 -1.600874 -0.646242 -0.769289 0.000000 0.000000 0.000000 
-1133.670166 843.845764 1098.994019 30.196311 -0.066150 -0.774536 0.041439 -2.093017 -0.187590 0.146892 0.312957 0.025038 0.133034 -0.438335 -0.050068 0.144723 1.229848 -0.238987 0.000000 0.000000 0.000000 -0.181368 2.636978 1.001409 0.142297 2.641983 0.767459 -0.090744 -1.330952 -1.612386 0.000000 0.000000 0.000000 0.522878 0.750769 1.174029 -0.338407 1.307314 -2.634957 0.064544 -1.696740 3.380482 0.000000 0.000000 0.000000 2.694030 -0.390520 1.151031 2.756701 0.608588 0.276194 2.823990 -2.370325 0.662308 0.000000 0.000000 0.000000 -1.662589 -0.173692 0.806134 -1.570046 1.109919 -0.037028 -1.592806 -0.658509 -0.766381 0.000000 0.000000 0.000000 
-1133.898071 843.923462 1098.985962 30.165986 -0.061938 -0.785087 0.040870 -2.064561 -0.188673 0.144428 0.308421 0.021876 0.130906 -0.432020 -0.047144 0.142174 1.220816 -0.232329 0.000000 0.000000 0.000000 -0.175488 2.646631 1.024556 0.147336 2.647405 0.818826 -0.087652 -1.357914 -1.603662 0.000000 0.000000 0.000000 0.548507 0.778504 1.183480 -0.374904 1.352658 -2.775024 0.060719 -1.836318 3.708898 0.000000 0.000000 0.000000 2.704434 -0.416058 1.147290 2.766777 0.627682 0.281667 2.835299 -2.375101 0.666222 0.000000 0.000000 0.000000 -1.653949 -0.190332 0.803984 -1.561077 1.123992 -0.029843 -1.584434 -0.671344 -0.763368 0.000000 0.000000 0.000000 
-1134.109619 843.996704 1098.980957 30.137079 -0.057129 -0.793972 0.040003 -2.039380 -0.190112 0.141939 0.304963 0.020383 0.128654 -0.426186 -0.045164 0.140023 1.211861 -0.226997 0.000000 0.000000 0.000000 -0.170131 2.656380 1.044216 0.151537 2.653340 0.864107 -0.085461 -1.382493 -1.599996 0.000000 0.000000 0.000000 0.572845 0.801615 1.190817 -0.408323 1.389234 -2.890958 0.055866 -1.956983 4.000946 0.000000 0.000000 0.000000 2.714423 -0.439751 1.142341 2.776329 0.643017 0.287134 2.845862 -2.377128 0.670511 0.000000 0.000000 0.000000 -1.645633 -0.205816 0.801530 -1.552498 1.134655 -0.024399 -1.576333 -0.680304 -0.760240 0.000000 0.000000 0.000000 
-1134.302368 844.061035 1098.978027 30.112374 -0.052370 -0.800875 0.038323 -2.016641 -0.190777 0.138814 0.302150 0.020109 0.125661 -0.421346 -0.044473 0.139149 1.202403 -0.226083 0.000000 0.000000 0.000000 -0.164876 2.667284 1.057932 0.155078 2.659973 0.906635 -0.085001 -1.400673 -1.605322 0.000000 0.000000 0.000000 0.595881 0.818252 1.195231 -0.435460 1.413821 -2.973557 0.051097 -2.051485 4.238555 0.000000 0.000000 0.000000 2.722982 -0.460077 1.135717 2.784181 0.653212 0.293704 2.854589 -2.376251 0.674712 0.000000 0.000000 0.000000 -1.638383 -0.219530 0.799394 -1.544967 1.141521 -0.022214 -1.569243 -0.684988 -0.757310 0.000000 0.000000 0.000000 
-1134.480225 844.121216 1098.977051 30.089134 -0.047283 -0.806250 0.036432 -1.995762 -0.190836 0.135594 0.299058 0.020984 0.122489 -0.416633 -0.045154 0.138635 1.192084 -0.226514 0.000000 0.000000 0.000000 -0.160773 2.678042 1.068096 0.157805 2.666714 0.943353 -0.085544 -1.415496 -1.616001 0.000000 0.000000 0.000000 0.617626 0.829865 1.199259 -0.458065 1.430115 -3.033909 0.046648 -2.127818 4.439774 0.000000 0.000000 0.000000 2.731242 -0.478254 1.128072 2.791663 0.659369 0.299932 2.862663 -2.372353 0.679403 0.000000 0.000000 0.000000 -1.631341 -0.232000 0.797247 -1.537662 1.145306 -0.022225 -1.562336 -0.686281 -0.754255 0.000000 0.000000 0.000000 
-1134.639893 844.177917 1098.979004 30.065381 -0.041024 -0.809044 0.034150 -1.980679 -0.190138 0.132274 0.297131 0.021528 0.119214 -0.413242 -0.045200 0.139142 1.185584 -0.229739 0.000000 0.000000 0.000000 -0.159809 2.685448 1.074684 0.158678 2.672243 0.961012 -0.085563 -1.427426 -1.621177 0.000000 0.000000 0.000000 0.636377 0.837093 1.203975 -0.475310 1.438199 -3.065742 0.042843 -2.187672 4.605228 0.000000 0.000000 0.000000 2.739870 -0.495221 1.118762 2.799453 0.661750 0.305084 2.870678 -2.365616 0.684809 0.000000 0.000000 0.000000 -1.624241 -0.243448 0.793241 -1.530553 1.145393 -0.022561 -1.555399 -0.684134 -0.750972 0.000000 0.000000 0.000000 
-1134.781982 844.231873 1098.984009 30.039019 -0.032755 -0.809181 0.031968 -1.973419 -0.186378 0.129317 0.295664 0.020558 0.116335 -0.411352 -0.044573 0.140922 1.185786 -0.236094 0.000000 0.000000 0.000000 -0.164284 2.688785 1.076597 0.157080 2.676516 0.952168 -0.084410 -1.437725 -1.616807 0.000000 0.000000 0.000000 0.650044 0.839821 1.210682 -0.486127 1.437640 -3.063302 0.040011 -2.231322 4.731614 0.000000 0.000000 0.000000 2.749822 -0.511847 1.108351 2.808759 0.659520 0.307077 2.879512 -2.354461 0.691748 0.000000 0.000000 0.000000 -1.616676 -0.253956 0.786969 -1.523355 1.140262 -0.022352 -1.548014 -0.678229 -0.747249 0.000000 0.000000 0.000000 
-1134.906738 844.281860 1098.990967 30.012009 -0.023540 -0.807008 0.029452 -1.971348 -0.181241 0.126251 0.295256 0.019142 0.113320 -0.411005 -0.044021 0.143420 1.188381 -0.244472 0.000000 0.000000 0.000000 -0.171475 2.688777 1.075317 0.153677 2.679664 0.924574 -0.082762 -1.445572 -1.607410 0.000000 0.000000 0.000000 0.660677 0.837965 1.219337 -0.491029 1.429145 -3.033168 0.038395 -2.259158 4.822404 0.000000 0.000000 0.000000 2.759974 -0.527020 1.096586 2.818241 0.653215 0.307893 2.888115 -2.339772 0.699505 0.000000 0.000000 0.000000 -1.608771 -0.263256 0.779296 -1.516019 1.131584 -0.022941 -1.540337 -0.669393 -0.743210 0.000000 0.000000 0.000000 
-1135.013672 844.330505 1098.998047 29.985952 -0.015568 -0.804102 0.026599 -1.970313 -0.175137 0.122880 0.295195 0.017282 0.110044 -0.410626 -0.042692 0.146117 1.193278 -0.253026 0.000000 0.000000 0.000000 -0.177298 2.684965 1.072392 0.149485 2.680213 0.890021 -0.081737 -1.447687 -1.599477 0.000000 0.000000 0.000000 0.667458 0.832053 1.228172 -0.491722 1.415172 -2.988057 0.038203 -2.271773 4.889374 0.000000 0.000000 0.000000 2.769935 -0.538839 1.084531 2.827403 0.644727 0.309103 2.896371 -2.325398 0.707017 0.000000 0.000000 0.000000 -1.601037 -0.269795 0.771686 -1.508921 1.121462 -0.024267 -1.532875 -0.659875 -0.739228 0.000000 0.000000 0.000000 
-1135.101196 844.377441 1099.003052 29.962747 -0.009924 -0.801194 0.022441 -1.968775 -0.167180 0.118143 0.295540 0.014923 0.105406 -0.410403 -0.041711 0.148502 1.199688 -0.260123 0.000000 0.000000 0.000000 -0.178924 2.676078 1.068392 0.144604 2.677253 0.849892 -0.081670 -1.442248 -1.594533 0.000000 0.000000 0.000000 0.669397 0.821487 1.239870 -0.487738 1.395875 -2.928030 0.039816 -2.266828 4.930800 0.000000 0.000000 0.000000 2.778852 -0.545791 1.072660 2.835306 0.633964 0.311743 2.903475 -2.311418 0.713893 0.000000 0.000000 0.000000 -1.594049 -0.272076 0.765330 -1.502584 1.109113 -0.027045 -1.526150 -0.649269 -0.735516 0.000000 0.000000 0.000000 
-1135.171021 844.421753 1099.008057 29.940719 -0.005542 -0.797491 0.018106 -1.967235 -0.159662 0.113305 0.295090 0.014178 0.100623 -0.410408 -0.040788 0.150973 1.208457 -0.267058 0.000000 0.000000 0.000000 -0.180024 2.663774 1.062744 0.138946 2.671931 0.802766 -0.082117 -1.431382 -1.590476 0.000000 0.000000 0.000000 0.666879 0.807057 1.251463 -0.479548 1.371308 -2.852795 0.042939 -2.246946 4.948789 0.000000 0.000000 0.000000 2.787201 -0.549531 1.060530 2.842512 0.621387 0.314805 2.909891 -2.297962 0.720314 0.000000 0.000000 0.000000 -1.587315 -0.271806 0.759205 -1.496529 1.095623 -0.030936 -1.519726 -0.637990 -0.731900 0.000000 0.000000 0.000000 
-1135.225708 844.465454 1099.012939 29.920783 -0.000484 -0.793026 0.013744 -1.968249 -0.152494 0.108561 0.296010 0.012188 0.095964 -0.411063 -0.039432 0.152757 1.217026 -0.271651 0.000000 0.000000 0.000000 -0.181138 2.651139 1.057559 0.133410 2.665956 0.758248 -0.083377 -1.415699 -1.589844 0.000000 0.000000 0.000000 0.664857 0.791206 1.261066 -0.470686 1.345111 -2.778319 0.046398 -2.222986 4.960497 0.000000 0.000000 0.000000 2.795044 -0.552936 1.048334 2.849229 0.608661 0.317530 2.915801 -2.284776 0.726437 0.000000 0.000000 0.000000 -1.580924 -0.273328 0.751984 -1.490790 1.085785 -0.033492 -1.513701 -0.628688 -0.728586 0.000000 0.000000 0.000000 
